/* XPM */
static char *terminal_2[] = {
/* columns rows colors chars-per-pixel */
"48 48 121 2 ",
"   c None",
".  c #41BB41",
"X  c #42BA42",
"o  c #42BB42",
"O  c #43BA43",
"+  c #43BB43",
"@  c #44BB44",
"#  c #45BB45",
"$  c #48BC48",
"%  c #49BD49",
"&  c #4ABD4A",
"*  c #4BBD4B",
"=  c #4CBE4C",
"-  c #4DBE4D",
";  c #4FBE4F",
":  c #50BF50",
">  c #51BF51",
",  c #51C051",
"<  c #52C052",
"1  c #53C053",
"2  c #54C054",
"3  c #56C156",
"4  c #57C157",
"5  c #58C158",
"6  c #58C258",
"7  c #59C259",
"8  c #5BC35B",
"9  c #5CC35C",
"0  c #5DC45D",
"q  c #5EC45E",
"w  c #5FC55F",
"e  c #60C560",
"r  c #61C561",
"t  c #62C562",
"y  c #64C664",
"u  c #66C766",
"i  c #67C767",
"p  c #68C868",
"a  c #6AC86A",
"s  c #6FCA6F",
"d  c #71CB71",
"f  c #72CB72",
"g  c #79CE79",
"h  c #7BCE7B",
"j  c #7BCF7B",
"k  c #7DCF7D",
"l  c #7FCF7F",
"z  c #7ED07E",
"x  c #80D080",
"c  c #80D180",
"v  c #87D387",
"b  c #88D388",
"n  c #8AD48A",
"m  c #8BD48B",
"M  c #8DD58D",
"N  c #8ED58E",
"B  c #8FD68F",
"V  c #93D793",
"C  c #97D897",
"Z  c #9AD99A",
"A  c #9ADA9A",
"S  c #9CDB9C",
"D  c #A0DCA0",
"F  c #A4DDA4",
"G  c #A5DEA5",
"H  c #ADE1AD",
"J  c #B1E2B1",
"K  c #B2E2B2",
"L  c #B3E3B3",
"P  c #B4E3B4",
"I  c #B5E4B5",
"U  c #B6E4B6",
"Y  c #B8E4B8",
"T  c #B8E5B8",
"R  c #BAE5BA",
"E  c #BCE6BC",
"W  c #BEE6BE",
"Q  c #BFE7BF",
"!  c #C1E8C1",
"~  c #C2E8C2",
"^  c #C3E8C3",
"/  c #C4E9C4",
"(  c #C5E9C5",
")  c #C6EAC6",
"_  c #C7EAC7",
"`  c #C9EAC9",
"'  c #CBEBCB",
"]  c #CBECCB",
"[  c #D0EDD0",
"{  c #D2EED2",
"}  c #D3EFD3",
"|  c #D4EFD4",
" . c #D6EFD6",
".. c #DBF2DB",
"X. c #DDF2DD",
"o. c #E3F4E3",
"O. c #E5F5E5",
"+. c #E6F5E6",
"@. c #EAF7EA",
"#. c #EBF7EB",
"$. c #ECF8EC",
"%. c #EDF8ED",
"&. c #EEF9EE",
"*. c #EFF8EF",
"=. c #EFF9EF",
"-. c #F0F9F0",
";. c #F1F9F1",
":. c #F2FAF2",
">. c #F3FAF3",
",. c #F5FBF5",
"<. c #F7FBF7",
"1. c #F7FCF7",
"2. c #F8FCF8",
"3. c #F9FCF9",
"4. c #FAFCFA",
"5. c #FAFDFA",
"6. c #FBFDFB",
"7. c #FCFEFC",
"8. c #FDFEFD",
"9. c #FEFEFE",
"0. c white",
/* pixels */
"      X X X # + + # + # + # + # + # + # + # + # + # + # + # + # + # + # + # + # + # X X X       ",
"  X + + # # + # # + # + # + # + # + # + # + # + # + # + # + # + # + # + # + # + # + + # # X X   ",
"  X # # # + # + + # + # + # + # + # + # + # + # + # + # + # + # + # + # + # + # # + # + + # X   ",
"X # # + + # + # # + # + # + # + # + # + # + # + # + # + # + # + # + # + # + # + + # + # # + # X ",
"X + # + # + # + + # + # + # + # + # + # + # + # + # + # + # + # + # + # + # + # # + # + # + # + ",
"# # + # + # + # # + # + # + # + # + # + # + # + # + # + # + # + # + # + # + # + + # + # + # # X ",
"+ # # + # + # + + # + # + # + # + # + # + # + # + # + # + # + # + # + # + # + # # + # + # + # + ",
"# + + # + # + # # + # + # + # # # + # + # + # + # + # + # + # + # + # + # + # + + # + # + # + # ",
"+ # + # + # + # + # + # # # + X # # 6 m H ~ ] ` ` ) ) ~ ~ Q Q T T T I P G 4 + # # + # + # + # + ",
"# + # + # + # + # + # + X # # , x ] 0.0.0.0.0.0.0.0.0.0.0.0.0.0.0.0.0.0.1.h # + + # + # + # + # ",
"+ # + # + # + # + # + # X : m { 0.0.0.0.0.0.0.0.0.0.0.0.0.0.0.0.0.0.0.0.X., # # # + # + # + # + ",
"# + # + # + # + # + # + - I ,.0.0.0.0.0.0.0.0.0.0.0.0.0.0.0.0.0.0.0.0.0.C X # + + # + # + # + # ",
"+ # + # + # + # + # # - ~ 0.0.0.0.0.2.,.-.%.0.0.0.2.$.%.%.%.%.%.-.-.%.] $ + # + # + # + # + # + ",
"# + # + # + # + # + - T 0.0.0.2.{ J V h u l 1.0.0.| 0 , 4 0 r u p p u $ # # + # + # + # + # + # ",
"+ # + # + # + # + # d %.0.| A p 6 $ # X X T 0.0.0.~ , # + # + # + # + # + # # + # + # + # + # + ",
"# + # + # + # + # + $ r - # # X # X # # 4 2.0.0.0.J $ + # + # + # + # + # + + # + # + # + # + # ",
"+ # + # + # + # + # + # + # + # # # + # A 0.0.0.0.A # # + # + # # + # + # + # + # + # + # + # + ",
"# + # + # + # + # + # + # + # + # + # $ | 0.0.0.2.b X # # + # + + # + # + # + # + # + # + # + # ",
"+ # + # + # + # + # + # + # + # + # + p @.0.0.0.-.f # # + # + # # + # + # + # + # + # + # + # + ",
"# + # + # + # + # + # + # + # + # + + V 2.0.0.0.*.9 # X # + # + + # + # + # + # + # + # + # + # ",
"+ # + # + # + # + # + # + # + # + # $ J 0.0.0.0.O.$ + # + # + # # + # + # + # + # + # + # + # + ",
"# + # + # + # + # + # + # + # + # + : | 0.0.0.0.) + # + # + # + + # + # + # + # + # + # + # + # ",
"+ # + # + # + # + # + # + # + # + # 8 -.0.0.0.0.D # + # + # + # # + # + # + # + # + # + # + # + ",
"# + # + # + # + # + # + # + # + # + z 0.0.0.0.0.h # # + # + # + + # + # + # + # + # + # + # + # ",
"+ # + # + # + # + # + # + # + # X # J 0.0.0.0.0.4 # + # + # + # # + # + # + # + # + # + # + # + ",
"# + # + # + # + # + # + # + # + # X o.0.0.0.0.%.# + # + # + # + + # + # + # + # + # + # + # + # ",
"+ # + # + # + # + # + # + # + # # 4 0.0.0.0.0.{ + # + # + # + # # + # + # + # + # + # + # + # + ",
"# + # + # + # + # + # + # + # + X l 0.0.0.0.0.I # + # + # + # + + # + # + # + # + # + # + # + # ",
"+ # + # + # + # + # + # + # + # + D 0.0.0.0.0.A + # + # + # + # # + # + # + # + # + # + # + # + ",
"# + # + # + # + # + # + # + # + # ) 0.0.0.0.0.x # + # + # + # + + # + # + # + # + # + # + # + # ",
"+ # + # + # + # + # + # + # # # $ X.0.0.0.0.0.p + # + # + # + # # + # + # + # + # + # + # + # + ",
"# + # + # + # + # + # + # + X # r O.0.0.0.0.-.r # + # + # + # + + # + # + # + # + # + # + # + # ",
"+ # + # + # + # + # + # + # + # s $.0.0.0.0.O.0 # # + # + # + # + # + # + # + # + # + # + # + # ",
"# + # + # + # + # + # + # + # + l -.0.0.0.0.X.6 # + # + # + # + # + # + # + # + # + # + # + # + ",
"+ # + # + # + # + # + # + # + # v ,.0.0.0.0.{ 4 + # + # + # + # + # + # + # + # + # + # + # + # ",
"# + # + # + # + # + # + # + # + N 1.0.0.0.0.` , # + # + # + # + # + # + # + # + # + # + # + # + ",
"+ # + # + # + # + # + # + # + # N 1.0.0.0.0.` , + # + # + # + # + # + # + # + # + # + # + # + # ",
"# + # + # + # + # + # + # + # + b ,.0.0.0.0.Q - # + # + # + # + # + # + # + # + # + # + # + # + ",
"+ # + # + # + # + # + # + # + # l %.0.0.0.2.N # + # + # + # + # + # + # + # + # + # + # + # + # ",
"# + # + # + # + # + # + # + # + , ~ O.| J f + # # + # + # + # + # + # + # + # + # + # + # + # + ",
"+ # + # + # + # + # + # + # + # # + # + # + # + # + # + # + # + # + # + # + # + + # + # + # + # ",
"# + # + # + # + # + # + # + # + + # + # + # + # + # + # + # + # + # + # + # + # # + # + # + # + ",
"X # + # + # + # + # + # + # + # # + # + # + # + # + # + # + # + # + # + # + # + + # + # + # + X ",
"X + # + # + # + # + # + # + # + + # + # + # + # + # + # + # + # + # + # + # + # # + # + # # X # ",
"X + # + + # + # + # + # + # + # # + # + # + # + # + # + # + # + # + # + # + # + # + # + + # + + ",
"  # + # # + # + # + # + # + # + + # + # + # + # + # + # + # + # + # + # + # + # + # + # # + X   ",
"  X + # # # + # + # + # + # + # # + # + # + # + # + # + # + # + # + # + # + # + # + # # # X +   ",
"      X X X # + # + # + # + # + + # + # + # + # + # + # + # + # + # + # + # + # + # X + X       "
};
