/* XPM */
static char *terminal[] = {
/* columns rows colors chars-per-pixel */
"100 100 64 1 ",
"  c black",
". c gray2",
"X c #090909",
"o c gray5",
"O c #111111",
"+ c #161616",
"@ c #191919",
"# c gray12",
"$ c #232323",
"% c #252525",
"& c #282828",
"* c gray18",
"= c gray19",
"- c gray21",
"; c gray22",
": c #3C3C3C",
"> c gray25",
", c gray27",
"< c #494949",
"1 c gray31",
"2 c #505050",
"3 c #555555",
"4 c #5A5A5A",
"5 c #5D5D5D",
"6 c #626262",
"7 c gray40",
"8 c #6A6A6A",
"9 c gray43",
"0 c gray44",
"q c #767676",
"w c #797979",
"e c #7C7C7C",
"r c #818181",
"t c #868686",
"y c #8B8B8B",
"u c #8E8E8E",
"i c #909090",
"p c #979797",
"a c #9A9A9A",
"s c gray61",
"d c #A2A2A2",
"f c #A7A7A7",
"g c gray66",
"h c gray68",
"j c gray70",
"k c #B7B7B7",
"l c gray73",
"z c gray74",
"x c #C1C1C1",
"c c #C5C5C5",
"v c gray79",
"b c #CDCDCD",
"n c LightGray",
"m c #D7D7D7",
"M c #DADADA",
"N c gray87",
"B c gray88",
"V c #E7E7E7",
"C c gray91",
"Z c gray93",
"A c gray95",
"S c #F6F6F6",
"D c #F8F8F8",
"F c #FEFEFE",
/* pixels */
"                                                                                                    ",
"                                                                                                    ",
"                                                                                                    ",
"                                                                                                    ",
"                                                                                                    ",
"                                                                                                    ",
"                                                                                                    ",
"                                                                                                    ",
"                                                                                                    ",
"                                                                                                    ",
"                                                                                                    ",
"                                                                                                    ",
"                                                                                                    ",
"                                                                                                    ",
"                                                                                                    ",
"                                                                                                    ",
"                                                                                                    ",
"                                                                                                    ",
"                                                                                                    ",
"                    o,0uaay0,o                   O<0uaay9>X                   +2qiaat8:.            ",
"                  <jDFFFFFFFFDl2               3zFFFFFFFFFSj,              .6cFFFFFFFFFAf;          ",
"                %xFFFFFFFFFFFFFF3            =bFFFFFFFFFFFFFF:            :MFFFFFFFFFFFFFF$         ",
"               ,AFFFFFFFFFFFFFFF4           4DFFFFFFFFFFFFFFF:           0FFFFFFFFFFFFFFFF%         ",
"              >DFFFFFFFFFFFFFFFF4          3FFFFFFFFFFFFFFFFF:          8FFFFFFFFFFFFFFFFF%         ",
"             #ZFFFFFFFFFFFFFFFFF4         *SFFFFFFFFFFFFFFFFF:         >FFFFFFFFFFFFFFFFFF%         ",
"             kFFFFFFFFFnhajBFFFF4         bFFFFFFFFFbgskVFFFF:        XBFFFFFFFFFcfskZFFFF%         ",
"            ,FFFFFFFFz*     ;jFF4        5FFFFFFFFh%     >xFF:        wFFFFFFFFa#    .1bFF%         ",
"            lFFFFFFFp         <Z4        nFFFFFFFe         5S:       .VFFFFFFF7         9D%         ",
"           #FFFFFFFc.          $-       ;FFFFFFFh           =&       2FFFFFFFp           :@         ",
"           9FFFFFFF:                    yFFFFFFD%                    dFFFFFFA+                      ",
"           gFFFFFFv                     xFFFFFFh                     MFFFFFFp                       ",
"           MFFFFFFe                     AFFFFFF6                    oFFFFFFF<                       ",
"          oFFFFFFF;                    %FFFFFFF$                    :FFFFFFFX                       ",
"          -FFFFFFFO                    1FFFFFFS                     8FFFFFFN                        ",
"          ,FFFFFFZ                     5FFFFFFn                     wFFFFFFl                        ",
"          3FFFFFFM                     9FFFFFFz                     tFFFFFFf                        ",
"          6FFFFFFb                     eFFFFFFk                     pFFFFFFa                        ",
"          9FFFFFFc                     tFFFFFFh                     dFFFFFFi                        ",
"          6FFFFFFb                     eFFFFFFj                     pFFFFFFa                        ",
"          3FFFFFFM                     9FFFFFFz                     yFFFFFFf                        ",
"          ,FFFFFFC                     6FFFFFFn                     wFFFFFFk                        ",
"          -FFFFFFFO                    2FFFFFFS                     8FFFFFFM                        ",
"          oFFFFFFF;                    %FFFFFFF#                    >FFFFFFDX                       ",
"           MFFFFFFw                     AFFFFFF5                    OFFFFFFF,                       ",
"           gFFFFFFc                     cFFFFFFg                     NFFFFFFi                       ",
"           0FFFFFFF-                    yFFFFFFD$                    fFFFFFFAO                      ",
"           $FFFFFFFz           #=       ;FFFFFFFf           &%       3FFFFFFFu           -+         ",
"            zFFFFFFFu         >C4        mFFFFFFFq         2A:       XCFFFFFFF5         7S%         ",
"            <FFFFFFFFk%     *gFF4        7FFFFFFFFd#     -kFF:        eFFFFFFFFi+     >cFF%         ",
"             zFFFFFFFFFvdufmFFFF4        .mFFFFFFFFFxdugNFFFF:        oVFFFFFFFFDzsihVFFFF%         ",
"             $AFFFFFFFFFFFFFFFFF4         =DFFFFFFFFFFFFFFFFF:         ,FFFFFFFFFFFFFFFFFF%         ",
"              <DFFFFFFFFFFFFFFFF4          5FFFFFFFFFFFFFFFFF:          eFFFFFFFFFFFFFFFFF%         ",
"               2SFFFFFFFFFFFFFFF4           7DFFFFFFFFFFFFFFF:           eFFFFFFFFFFFFFFFF%         ",
"                *bFFFFFFFFFFFFFF4            ;MFFFFFFFFFFFFFF:            <VFFFFFFFFFFFFFF%         ",
"                  3xFFFFFFFFFFx4.             .6vFFFFFFFFFDl1              X9nFFFFFFFFFSh>          ",
"                    +2eaggae2+                   #4rsggaw1o                   $5tsgfpq,X            ",
"                                                                                                    ",
"                                                                                                    ",
"                                                                                                    ",
"                                                                                                    ",
"                                                                                                    ",
"                                                                                                    ",
"                                                                                                    ",
"                                                                                                    ",
"                                                                                                    ",
"                                                                                                    ",
"                                                                                                    ",
"rrrrrrrrrrrrrrrrrrrrrrrrrrrrrrrrrrrrrrrrrrrrrrrrrrrrrrrrrrrrrrrrrrrrrrrrrrrrrrrrrrrrrrrrrrrrrrrrrrrr",
"FFFFFFFFFFFFFFFFFFFFFFFFFFFFFFFFFFFFFFFFFFFFFFFFFFFFFFFFFFFFFFFFFFFFFFFFFFFFFFFFFFFFFFFFFFFFFFFFFFFF",
"FFFFFFFFFFFFFFFFFFFFFFFFFFFFFFFFFFFFFFFFFFFFFFFFFFFFFFFFFFFFFFFFFFFFFFFFFFFFFFFFFFFFFFFFFFFFFFFFFFFF",
"FFFFFFFFFFFFFFFFFFFFFFFFFFFFFFFFFFFFFFFFFFFFFFFFFFFFFFFFFFFFFFFFFFFFFFFFFFFFFFFFFFFFFFFFFFFFFFFFFFFF",
"FFFFFFFFFFFFFFFFFFFFFFFFFFFFFFFFFFFFFFFFFFFFFFFFFFFFFFFFFFFFFFFFFFFFFFFFFFFFFFFFFFFFFFFFFFFFFFFFFFFF",
"FFFFFFFFFFFFFFFFFFFFFFFFFFFFFFFFFFFFFFFFFFFFFFFFFFFFFFFFFFFFFFFFFFFFFFFFFFFFFFFFFFFFFFFFFFFFFFFFFFFF",
"FFFFFFFFFFFFFFFFFFFFFFFFFFFFFFFFFFFFFFFFFFFFFFFFFFFFFFFFFFFFFFFFFFFFFFFFFFFFFFFFFFFFFFFFFFFFFFFFFFFF",
"FFFFFFFFFFFFFFFFFFFFFFFFFFFFFFFFFFFFFFFFFFFFFFFFFFFFFFFFFFFFFFFFFFFFFFFFFFFFFFFFFFFFFFFFFFFFFFFFFFFF",
"FFFFFFFFFFFFFFFFFFFFFFFFFFFFFFFFFFFFFFFFFFFFFFFFFFFFFFFFFFFFFFFFFFFFFFFFFFFFFFFFFFFFFFFFFFFFFFFFFFFF",
"FFFFFFFFFFFFFFFFFFFFFFFFFFFFFFFFFFFFFFFFFFFFFFFFFFFFFFFFFFFFFFFFFFFFFFFFFFFFFFFFFFFFFFFFFFFFFFFFFFFF",
"FFFFFFFFFFFFFFFFFFFFFFFFFFFFFFFFFFFFFFFFFFFFFFFFFFFFFFFFFFFFFFFFFFFFFFFFFFFFFFFFFFFFFFFFFFFFFFFFFFFF",
"FFFFFFFFFFFFFFFFFFFFFFFFFFFFFFFFFFFFFFFFFFFFFFFFFFFFFFFFFFFFFFFFFFFFFFFFFFFFFFFFFFFFFFFFFFFFFFFFFFFF",
"FFFFFFFFFFFFFFFFFFFFFFFFFFFFFFFFFFFFFFFFFFFFFFFFFFFFFFFFFFFFFFFFFFFFFFFFFFFFFFFFFFFFFFFFFFFFFFFFFFFF",
"FFFFFFFFFFFFFFFFFFFFFFFFFFFFFFFFFFFFFFFFFFFFFFFFFFFFFFFFFFFFFFFFFFFFFFFFFFFFFFFFFFFFFFFFFFFFFFFFFFFF",
"FFFFFFFFFFFFFFFFFFFFFFFFFFFFFFFFFFFFFFFFFFFFFFFFFFFFFFFFFFFFFFFFFFFFFFFFFFFFFFFFFFFFFFFFFFFFFFFFFFFF",
"rrrrrrrrrrrrrrrrrrrrrrrrrrrrrrrrrrrrrrrrrrrrrrrrrrrrrrrrrrrrrrrrrrrrrrrrrrrrrrrrrrrrrrrrrrrrrrrrrrrr",
"                                                                                                    ",
"                                                                                                    ",
"                                                                                                    ",
"                                                                                                    ",
"                                                                                                    ",
"                                                                                                    ",
"                                                                                                    ",
"                                                                                                    ",
"                                                                                                    ",
"                                                                                                    ",
"                                                                                                    ",
"                                                                                                    ",
"                                                                                                    ",
"                                                                                                    ",
"                                                                                                    ",
"                                                                                                    ",
"                                                                                                    "
};
